<svg width="30" height="30" viewBox="0 0 30 30" fill="none" xmlns="http://www.w3.org/2000/svg">
<path d="M8.68382 6.44179L15 12.7577L21.2835 6.47451C21.4222 6.32679 21.5894 6.20861 21.775 6.12707C21.9606 6.04554 22.1607 6.00231 22.3634 6C22.7974 6 23.2136 6.17239 23.5205 6.47925C23.8273 6.7861 23.9997 7.20229 23.9997 7.63625C24.0035 7.83685 23.9663 8.03612 23.8904 8.22183C23.8144 8.40753 23.7013 8.57575 23.5579 8.71617L17.1927 14.9994L23.5579 21.3644C23.8276 21.6282 23.9858 21.9854 23.9997 22.3625C23.9997 22.7964 23.8273 23.2126 23.5205 23.5195C23.2136 23.8263 22.7974 23.9987 22.3634 23.9987C22.1549 24.0074 21.9468 23.9726 21.7524 23.8965C21.5581 23.8204 21.3816 23.7048 21.2344 23.5569L15 17.241L8.70019 23.5406C8.56193 23.6834 8.39676 23.7974 8.2142 23.876C8.03165 23.9546 7.83534 23.9963 7.63658 23.9987C7.2026 23.9987 6.7864 23.8263 6.47953 23.5195C6.17266 23.2126 6.00027 22.7964 6.00027 22.3625C5.99645 22.1619 6.03367 21.9626 6.10965 21.7769C6.18562 21.5912 6.29874 21.423 6.44207 21.2825L12.8073 14.9994L6.44207 8.63436C6.17238 8.37053 6.01424 8.01326 6.00027 7.63625C6.00027 7.20229 6.17266 6.7861 6.47953 6.47925C6.7864 6.17239 7.2026 6 7.63658 6C8.0293 6.00491 8.40565 6.16362 8.68382 6.44179Z" fill="#838383"/>
</svg>
